<svg xmlns="http://www.w3.org/2000/svg"
     width="128"
     height="128"
     viewBox="0 0 960 960">

  <g transform="translate(480 480) scale(0.6) translate(-480 -480)">
    
    <path fill="#90d4dd"
          d="M554.5 561m-264 0a264 264 0 1 0 528 0 264 264 0 1 0-528 0z" />
    
    <path fill="#8c8c8c"
          d="M703.5 136h-15c-10-45-50-79-98-79H376.5c-48 0-88.5 34-98 79h-15c-85 0-153.5 69-153.5 153.5v447c0 85 68.5 153.5 153.5 153.5h440c85 0 153.5-68.5 153.5-153.5V289.5c0-84.5-68.5-153.5-153.5-153.5zm-369.5 21.5c0-23.5 19-43 42.5-43h213.5c23.5 0 42.5 19.5 42.5 43v27c0 23.5-19 43-42.5 43H376.5c-23.5 0-42.5-19.5-42.5-43v-27zm465.5 579.5c0 53-43 96-96 96H263c-53 0-96-43-96-96V289.5c0-53 43-96 96-96h13c4.5 51 48 91.5 100 91.5h213.5c52 0 95.5-40.5 100-91.5h13c53 0 96 43 96 96v447z" />
    
    <path fill="#8c8c8c"
          d="M446.5 645c-0.5 0-1 0-1.5-0.5-16-0.5-32-8-43-20.5l-87-103c-10-12-9-30.5 3.5-41 12.5-10.5 30.5-9 41 3.5l86 102.5c0.5 0.5 1.5 0.5 2 0l170.5-173c11-11.5 29.5-11.5 40.5 0s11.5 29.5 0 40.5l-171 173c-11.5 11.5-27 18-43 18z" />
  
  </g>
</svg>